<svg id="Layer_1" data-name="Layer 1" xmlns="http://www.w3.org/2000/svg" viewBox="0 0 350 85"><defs><style>.cls-1{fill:#fff;}</style></defs><title>THS-brand</title><path class="cls-1" d="M92.1,80.83A2.15,2.15,0,0,0,91,78.94a13.57,13.57,0,0,0-4-1.33,16.68,16.68,0,0,1-4.28-1.36,3.12,3.12,0,0,1-1.92-2.75,3.06,3.06,0,0,1,1.78-2.69,9,9,0,0,1,4.56-1,9.57,9.57,0,0,1,3.37.55,5.29,5.29,0,0,1,2.3,1.55,3.32,3.32,0,0,1,.82,2.2H92a2.74,2.74,0,0,0-1.32-2.37,6.24,6.24,0,0,0-3.56-.9,6.85,6.85,0,0,0-3.45.74,2.17,2.17,0,0,0-1.28,1.92,2,2,0,0,0,1.15,1.79,12.48,12.48,0,0,0,3.7,1.23,20.4,20.4,0,0,1,3.85,1.1,5.26,5.26,0,0,1,2,1.35,2.83,2.83,0,0,1,.66,1.87,3.07,3.07,0,0,1-1.79,2.73,9.3,9.3,0,0,1-4.7,1A11.92,11.92,0,0,1,83.55,84,5.64,5.64,0,0,1,81,82.5a3.31,3.31,0,0,1-.86-2.24h1.6a2.67,2.67,0,0,0,1.49,2.4,7.74,7.74,0,0,0,4,.88,7.33,7.33,0,0,0,3.54-.74A2.22,2.22,0,0,0,92.1,80.83Z"/><path class="cls-1" d="M141.86,71h-6.48V84.37h-1.59V71h-6.47V70h14.54Z"/><path class="cls-1" d="M189.81,70V79.8a4.14,4.14,0,0,1-.84,2.54A5.31,5.31,0,0,1,186.63,84a9.62,9.62,0,0,1-3.48.58,8.25,8.25,0,0,1-4.78-1.24,4.1,4.1,0,0,1-1.86-3.44V70h1.58v9.74a3.3,3.3,0,0,0,1.37,2.82,7.3,7.3,0,0,0,7.39,0,3.29,3.29,0,0,0,1.35-2.8V70Z"/><path class="cls-1" d="M226.15,84.37V70h5.28a10.44,10.44,0,0,1,4.17.8,6.62,6.62,0,0,1,2.87,2.31,5.87,5.87,0,0,1,1,3.42v1.33a5.94,5.94,0,0,1-1,3.42,6.67,6.67,0,0,1-2.89,2.3,10.63,10.63,0,0,1-4.27.81ZM227.75,71V83.34h3.58a7.22,7.22,0,0,0,4.79-1.51,5,5,0,0,0,1.8-4.08V76.49a4.93,4.93,0,0,0-1.78-4,7,7,0,0,0-4.68-1.5Z"/><path class="cls-1" d="M277.39,84.37h-1.6V70h1.6Z"/><path class="cls-1" d="M328.36,78a6.69,6.69,0,0,1-.9,3.49,6,6,0,0,1-2.57,2.31,8.81,8.81,0,0,1-3.87.81,7.78,7.78,0,0,1-5.35-1.8,6.21,6.21,0,0,1-2-4.87V76.41a6.6,6.6,0,0,1,.91-3.48,6,6,0,0,1,2.59-2.33,8.61,8.61,0,0,1,3.85-.82,8.83,8.83,0,0,1,3.85.8,6.06,6.06,0,0,1,2.58,2.26,6.58,6.58,0,0,1,.94,3.4Zm-1.59-1.57a5.36,5.36,0,0,0-1.55-4.07,6.75,6.75,0,0,0-8.42,0,5.37,5.37,0,0,0-1.57,4.12V78A5.34,5.34,0,0,0,316.79,82a5.85,5.85,0,0,0,4.23,1.5A5.78,5.78,0,0,0,325.25,82a5.46,5.46,0,0,0,1.52-4.11Z"/><rect class="cls-1" x="139.85" y="6.03" width="67.71" height="14.14"/><rect class="cls-1" x="167.24" y="21.7" width="12.94" height="41.23"/><path class="cls-1" d="M224.78,63.31H210.24V5.81h14.54Zm51.48,0H261.43V41.59H234.08v-14h27.35v-22h14.83Z"/><path class="cls-1" d="M350,54.4a10.46,10.46,0,0,1-1.88,6.24,6.09,6.09,0,0,1-5.28,2.63H283.45V49.14h47.62a4.49,4.49,0,0,0,2.64-1,3.59,3.59,0,0,0,1.4-3.11,4.17,4.17,0,0,0-.59-2.13,4.32,4.32,0,0,0-1.77-1.6,5.63,5.63,0,0,0-2.58-.6h-36a7.63,7.63,0,0,1-4.6-1.47,10.66,10.66,0,0,1-3.11-3.41,7,7,0,0,1-1.09-3.19V13.92c0-1.6.79-3.38,2.38-5.32a7.56,7.56,0,0,1,6.14-2.91H347.2V19.34h-44A2.5,2.5,0,0,0,301,20.63a4.9,4.9,0,0,0-.82,2.69,4.47,4.47,0,0,0,1.13,2.73,3.83,3.83,0,0,0,3.2,1.45h36.12q4.8,0,7.09,2.77A11,11,0,0,1,350,37.53Z"/><polygon class="cls-1" points="36.69 17.73 17.71 35.03 36.69 52.33 36.69 69.62 2.87 37.74 0 35.03 2.87 32.31 36.69 0.43 36.69 17.73"/><polygon class="cls-1" points="98.19 17.73 117.17 35.03 98.19 52.33 98.19 69.62 132.01 37.74 134.88 35.03 132.01 32.31 98.19 0.43 98.19 17.73"/><polygon class="cls-1" points="60.44 69.62 48.97 69.62 74.44 0.43 85.91 0.43 60.44 69.62"/></svg>